# xmcd
#
# Track frame offsets:
#	150
#	20520
#	40247
#	61980
#	81597
#	102467
#	119745
#	139572
#	159967
#	181260
#	208385
#	227815
#	248262
#	277417
#
# Disc length: 4009 seconds
#
# Revision: 1
# Processed by: cddbd v1.5.1PL0 Copyright (c) Steve Scherf et al.
# Submitted via: CDex 1.50Beta5
#
DISCID=cb0fa70e
DTITLE=Various Artist - NEW MUSIC BEST COLLECTION 14
DYEAR=1900
DGENRE=
TTITLE0=堀内孝雄/冗談じゃねぇ
TTITLE1=堀内孝雄/憧れ遊び
TTITLE2=堀内孝雄/遥かな轍
TTITLE3=堀内孝雄/ガキの頃のように
TTITLE4=堀内孝雄/さよならだけの人生に
TTITLE5=堀内孝雄/恋唄綴り
TTITLE6=堀内孝雄/愛しき日々
TTITLE7=谷村新司/いい日旅立ち
TTITLE8=谷村新司/小川知子/忘れていいの-愛の幕切れ-
TTITLE9=谷村新司/祇園祭
TTITLE10=谷村新司/22歳
TTITLE11=谷村新司/昴-すばる-
TTITLE12=谷村新司/群青
TTITLE13=谷村新司/君を忘れない
EXTD=
EXTT0=
EXTT1=
EXTT2=
EXTT3=
EXTT4=
EXTT5=
EXTT6=
EXTT7=
EXTT8=
EXTT9=
EXTT10=
EXTT11=
EXTT12=
EXTT13=
PLAYORDER=
